# xmcd
#
# Track frame offsets:
#	150
#	10795
#	23898
#	35573
#	48959
#	60780
#	73164
#	87303
#	100344
#	113210
#
# Disc length: 1720 seconds
#
# Revision: 0
# Processed by: cddbd v1.4PL0 Copyright (c) Steve Scherf et al.
# Submitted via: MusicWizard 6.0.0
#
DISCID=7906b60a
DTITLE=Johnny Cash - A Thing Called Love
DYEAR=2002
DGENRE=Country
TTITLE0=Kate
TTITLE1=Melva's Wine
TTITLE2=A Thing Called Love
TTITLE3=I Promise You
TTITLE4=Papa Was A Good Man
TTITLE5=Tear Stained Letter
TTITLE6=Mississippi Sand
TTITLE7=Daddy
TTITLE8=Arkansas Lovin' Man
TTITLE9=The Miracle Man
EXTD=(c)2002/ (p)1972 Columbia Records CBS S 64898\n\n
EXTT0=
EXTT1=
EXTT2=
EXTT3=
EXTT4=
EXTT5=
EXTT6=
EXTT7=
EXTT8=
EXTT9=
PLAYORDER=
